<?xml version="1.0" standalone="no"?><!DOCTYPE svg PUBLIC "-//W3C//DTD SVG 1.1//EN" "http://www.w3.org/Graphics/SVG/1.1/DTD/svg11.dtd"><svg t="1551926656898" class="icon" style="" viewBox="0 0 1024 1024" version="1.1" xmlns="http://www.w3.org/2000/svg" p-id="5117" xmlns:xlink="http://www.w3.org/1999/xlink" width="180" height="180"><defs><style type="text/css"></style></defs><path d="M492.2 932.2l1.2-495.7c0.1-23.5-26.4-37.3-45.7-23.8-9.8 6.9-21 14.6-33.2 22.7C274.6 528.2 90.8 417.2 56.6 463 3.9 533.4 305.7 957.8 462.8 961.1c16.1 0.4 29.3-12.8 29.4-28.9zM607.1 435.4c-12.2-8.1-23.4-15.8-33.2-22.7-19.3-13.5-45.7 0.3-45.7 23.8l1.2 495.7c0 16.1 13.2 29.3 29.3 28.9 157.2-3.3 459-427.7 406.3-498.1-34.2-45.8-218 65.2-357.9-27.6zM723.9 68.8H281.8c-16 0-29 13-29 29v94c0 16 13 29 29 29h442.1c16 0 29-13 29-29v-94c0-16-13-29-29-29z m-287.1 103h-95c-16 0-29-13-29-29s13-29 29-29h95c16 0 29 13 29 29s-13 29-29 29z m227 0h-95c-16 0-29-13-29-29s13-29 29-29h95c16 0 29 13 29 29s-13 29-29 29z" p-id="5118"></path><path d="M413.5 385.4c33.8-22.4 59.4-41.3 71.4-50.4 5-3.8 11.2-5.9 17.5-5.9h14.8c6.3 0 12.5 2.1 17.5 5.9 12.1 9.1 37.6 28 71.4 50.4 75.9 50.4 161.7 37 229.8 32 15.2-1.1 26.9-13.7 26.9-28.9v-99.7c0-16-13-29-29-29h-656c-16 0-29 13-29 29v99.5c0 15.2 11.7 27.8 26.8 28.9 69.4 5.2 159 20.5 237.9-31.8z" p-id="5119"></path></svg>